<svg width="67" height="55" viewBox="0 0 67 55" fill="none" xmlns="http://www.w3.org/2000/svg">
<g filter="url(#filter0_d)">
<path d="M8.48764 39.2778C8.71752 39.5634 8.83998 39.9212 8.83356 40.2884C8.84529 40.528 8.8032 40.7671 8.71042 40.988C8.61763 41.209 8.47652 41.4062 8.29754 41.565C7.85095 41.9037 7.29769 42.0692 6.73933 42.0313H4V35.6263H6.68323C7.21289 35.5909 7.73833 35.7413 8.16977 36.0518C8.34305 36.1974 8.48026 36.3815 8.57058 36.5895C8.6609 36.7974 8.70185 37.0236 8.69021 37.2502C8.70595 37.6035 8.59543 37.9509 8.37857 38.2296C8.17037 38.4841 7.88265 38.6605 7.56206 38.7302C7.92548 38.7968 8.25352 38.9909 8.48764 39.2778ZM5.27461 38.3109H6.42146C6.6821 38.3303 6.94097 38.2548 7.1507 38.0982C7.23681 38.0198 7.3038 37.9226 7.34649 37.8141C7.38918 37.7056 7.40643 37.5887 7.39689 37.4724C7.40499 37.3565 7.38738 37.2403 7.34535 37.1321C7.30332 37.0239 7.2379 36.9264 7.15381 36.8466C6.93781 36.6856 6.6709 36.6088 6.40276 36.6307H5.27461V38.3109ZM7.26289 40.7672C7.35493 40.6869 7.42729 40.5865 7.47432 40.4736C7.52134 40.3607 7.54178 40.2385 7.53402 40.1163C7.54104 39.9928 7.51967 39.8693 7.47158 39.7554C7.42349 39.6414 7.34995 39.5401 7.25666 39.4593C7.03228 39.2922 6.75632 39.2102 6.47755 39.2277H5.27461V40.9893H6.49313C6.7674 41.0052 7.03889 40.9269 7.26289 40.7672Z" fill="#AFB1B8"/>
<path d="M13.9724 42.0313L12.4797 39.5281H11.9187V42.0313H10.6348V35.6263H13.0656C13.6783 35.5834 14.284 35.7783 14.7578 36.1708C15.0976 36.5184 15.3025 36.9764 15.3357 37.4624C15.3688 37.9483 15.228 38.4301 14.9385 38.821C14.6386 39.1659 14.229 39.3959 13.7792 39.4718L15.3686 42.0313H13.9724ZM11.9187 38.6552H12.969C13.6982 38.6552 14.0628 38.3318 14.0628 37.6852C14.0703 37.5531 14.0503 37.421 14.0041 37.2971C13.958 37.1732 13.8867 37.0603 13.7948 36.9655C13.5644 36.7731 13.2676 36.6798 12.969 36.7058H11.9063L11.9187 38.6552Z" fill="#AFB1B8"/>
<path d="M20.9908 40.742H18.4322L17.9803 42.0311H16.634L18.9838 35.6981H20.4392L22.7796 42.0311H21.4333L20.9908 40.742ZM20.648 39.772L19.7131 37.0686L18.7781 39.772H20.648Z" fill="#AFB1B8"/>
<path d="M29.7759 42.0312H28.5013L25.6436 37.6757V42.0312H24.3721V35.6262H25.6436L28.5013 40.0068V35.6262H29.7759V42.0312Z" fill="#AFB1B8"/>
<path d="M37.0497 40.4981C36.7862 40.9817 36.3846 41.375 35.8966 41.6276C35.3418 41.909 34.7261 42.0477 34.1047 42.0313H31.8359V35.6263H34.1047C34.725 35.61 35.3399 35.7453 35.8966 36.0206C36.3845 36.2674 36.7865 36.6569 37.0497 37.1376C37.3121 37.6585 37.4488 38.2341 37.4488 38.8178C37.4488 39.4016 37.3121 39.9772 37.0497 40.4981ZM35.5912 40.3448C35.955 39.9193 36.155 39.377 36.155 38.8163C36.155 38.2555 35.955 37.7133 35.5912 37.2878C35.1515 36.9024 34.5781 36.7067 33.9956 36.7433H33.1106V40.8892H33.9956C34.5781 40.9258 35.1515 40.7302 35.5912 40.3448Z" fill="#AFB1B8"/>
<path d="M21.7886 0C21.7886 0 38.2401 6.236 37.8911 15.2599V30.5229C37.8911 30.5229 21.452 24.2838 21.7948 15.2599L21.7886 0Z" fill="#AFB1B8"/>
<path d="M52.5476 26.9496C55.6546 24.8028 59.2485 23.4731 63.0001 23.0822V18.3043C58.6774 19.977 55.0104 23.0101 52.5476 26.9496Z" fill="#AFB1B8"/>
<path d="M50.6809 28.389C53.2239 23.2478 57.6326 19.2805 63.0001 17.3032V3.53577C63.0001 3.53577 39.5708 12.4189 40.0663 25.2695V47C40.0663 47 41.1103 46.6027 42.7527 45.858C42.7527 45.1633 42.7527 44.4625 42.8275 43.7584C43.3124 37.7926 46.1372 32.2643 50.6809 28.389Z" fill="#AFB1B8"/>
<path d="M48.4525 36.4617C48.5756 34.9546 48.8502 33.4639 49.2721 32.0123C46.4429 35.3589 44.7296 39.5117 44.3731 43.8867C44.3388 44.2997 44.3201 44.7127 44.3108 45.1383C45.6415 44.4968 47.1904 43.6958 48.8171 42.754C48.402 40.6842 48.2792 38.5659 48.4525 36.4617Z" fill="#AFB1B8"/>
<path d="M49.3843 36.54C49.2284 38.4437 49.3258 40.3599 49.6741 42.2378C56.0753 38.3923 63.268 32.4504 62.9906 25.2695V24.6437C58.4172 25.1575 54.1384 27.1648 50.8116 30.3571C50.0327 32.3355 49.5517 34.4193 49.3843 36.54Z" fill="#AFB1B8"/>
</g>
<defs>
<filter id="filter0_d" x="0" y="0" width="67" height="55" filterUnits="userSpaceOnUse" color-interpolation-filters="sRGB">
<feFlood flood-opacity="0" result="BackgroundImageFix"/>
<feColorMatrix in="SourceAlpha" type="matrix" values="0 0 0 0 0 0 0 0 0 0 0 0 0 0 0 0 0 0 127 0"/>
<feOffset dy="4"/>
<feGaussianBlur stdDeviation="2"/>
<feColorMatrix type="matrix" values="0 0 0 0 0 0 0 0 0 0 0 0 0 0 0 0 0 0 0.25 0"/>
<feBlend mode="normal" in2="BackgroundImageFix" result="effect1_dropShadow"/>
<feBlend mode="normal" in="SourceGraphic" in2="effect1_dropShadow" result="shape"/>
</filter>
</defs>
</svg>
